<?xml version="1.0" standalone="no"?>
<!DOCTYPE svg PUBLIC "-//W3C//DTD SVG 20010904//EN"
 "http://www.w3.org/TR/2001/REC-SVG-20010904/DTD/svg10.dtd">
<svg version="1.0" xmlns="http://www.w3.org/2000/svg"
 width="700.000000pt" height="700.000000pt" viewBox="0 0 700.000000 700.000000"
 preserveAspectRatio="xMidYMid meet">
<metadata>
Created by potrace 1.11, written by Peter Selinger 2001-2013
</metadata>
<g transform="translate(0.000000,700.000000) scale(0.100000,-0.100000)"
fill="#000000" stroke="none">
<path d="M4615 5934 c-160 -23 -247 -42 -345 -74 -370 -121 -621 -344 -745
-660 -14 -35 -59 -196 -101 -359 -43 -163 -79 -298 -81 -300 -1 -2 -29 16 -60
40 -422 324 -1012 428 -1613 282 -331 -80 -583 -199 -825 -391 -108 -86 -283
-266 -364 -375 -290 -389 -447 -853 -467 -1377 -11 -292 43 -555 162 -792 184
-366 563 -663 1013 -794 212 -62 262 -69 486 -68 291 0 497 34 781 129 220 74
440 190 632 335 l32 24 73 -71 c220 -216 514 -346 903 -398 65 -9 216 -18 334
-22 469 -12 822 62 1215 252 637 310 1084 866 1265 1573 178 698 52 1345 -331
1707 -256 242 -649 366 -1056 335 -65 -5 -125 -10 -134 -10 -15 0 -13 14 12
112 68 269 65 450 -13 608 -63 129 -205 235 -368 275 -63 15 -340 28 -405 19z
m313 -396 c92 -17 142 -82 142 -186 0 -64 -22 -157 -154 -662 -69 -261 -123
-476 -121 -479 3 -2 31 21 63 51 96 89 225 166 362 217 176 65 421 88 609 57
325 -55 526 -194 652 -451 85 -175 122 -358 121 -605 -1 -478 -181 -962 -497
-1339 -284 -338 -726 -583 -1205 -668 -118 -21 -544 -29 -697 -13 -283 28
-499 103 -668 232 -90 69 -156 151 -210 263 -75 156 -102 327 -84 535 12 147
21 200 69 390 102 407 553 2122 572 2175 48 133 151 257 283 340 207 130 522
189 763 143z m-2456 -1013 c236 -42 427 -126 603 -266 192 -152 293 -398 239
-579 -38 -128 -312 -332 -529 -395 -128 -37 -274 -37 -346 0 -40 21 -93 96
-126 179 -53 134 -114 186 -215 186 -72 0 -113 -13 -176 -56 -133 -93 -259
-349 -307 -628 -54 -317 43 -506 261 -506 73 0 154 45 263 147 49 46 106 90
125 98 113 47 368 -24 533 -149 155 -118 265 -309 250 -436 -14 -120 -105
-234 -277 -349 -313 -209 -698 -323 -1100 -325 -148 0 -176 2 -273 27 -292 73
-489 174 -664 341 -174 165 -270 345 -320 596 -24 118 -23 387 1 535 74 462
248 820 541 1110 244 242 502 376 871 450 226 46 456 53 646 20z"/>
<path d="M5027 3716 c-147 -61 -259 -180 -348 -371 -61 -129 -149 -460 -165
-616 -20 -202 60 -316 230 -327 148 -9 296 74 432 244 108 135 200 327 246
510 32 129 32 335 0 414 -27 68 -91 134 -151 155 -67 23 -175 19 -244 -9z"/>
</g>
</svg>
