<?xml version="1.0" encoding="UTF-8" standalone="no"?>
<svg
   xmlns:dc="http://purl.org/dc/elements/1.1/"
   xmlns:cc="http://creativecommons.org/ns#"
   xmlns:rdf="http://www.w3.org/1999/02/22-rdf-syntax-ns#"
   xmlns:svg="http://www.w3.org/2000/svg"
   xmlns="http://www.w3.org/2000/svg"
   viewBox="0 0 511.99999 512"
   height="512"
   width="512"
   xml:space="preserve"
   id="svg2"
   version="1.1"><metadata
     id="metadata8"><rdf:RDF><cc:Work
         rdf:about=""><dc:format>image/svg+xml</dc:format><dc:type
           rdf:resource="http://purl.org/dc/dcmitype/StillImage" /><dc:title></dc:title></cc:Work></rdf:RDF></metadata><defs
     id="defs6"><clipPath
       id="clipPath30"
       clipPathUnits="userSpaceOnUse"><path
         id="path28"
         d="M 0,841.215 H 1190.551 V 0 H 0 Z" /></clipPath></defs><g
     transform="matrix(1.3333333,0,0,-1.3333333,-551.30476,678.12763)"
     id="g10"><g
       id="g5142"><rect
         style="fill:none;fill-opacity:1;stroke:none;stroke-width:1.53782737;stroke-opacity:1"
         id="rect1410"
         width="384"
         height="384"
         x="413.47858"
         y="-508.59573"
         transform="scale(1,-1)" /><g
         id="g1408"
         transform="matrix(2.3900097,0,0,2.3900097,-843.11424,-456.3824)"><path
           d="m 672.4038,351.916 c -4.416,2.808 -10.85,4.479 -17.292,4.479 -2.057,0 -4.082,-0.167 -6.061,-0.495 0.253,0.977 0.408,1.565 0.408,1.565 l 0.045,0.18 c 0.053,0.222 0.13,0.488 0.214,0.787 3.92,13.996 -2.898,18.569 -7.378,20.051 -2.341,0.795 -5.154,0.963 -7.114,0.963 -10.845,0 -24.992,-4.892 -29.188,-18.756 -0.104,-0.352 -1.598,-6.05 -3.544,-13.496 -7.03,5.909 -16.012,9.034 -26.008,9.034 -9.149,0 -16.756,-2.557 -19.737,-3.718 -3.182,-1.155 -26.628,-10.703 -30.395,-42.345 -3.158,-26.529 14.596,-39.292 32.265,-42.391 l 0.115,-0.019 c 1.673,-0.298 3.674,-0.36 5.059,-0.36 5.965,0 21.036,1.144 33.651,11.425 8.643,-10.413 23.064,-11.083 27.915,-11.307 l 0.732,-0.036 c 1.161,-0.054 2.324,-0.082 3.455,-0.082 h 0.002 c 13.437,0 22.056,3.704 29.366,7.705 l 0.157,0.088 c 20.127,11.56 27.204,33.165 27.149,48.155 -0.046,13.103 -5.079,23.497 -13.816,28.573"
           style="fill:#032a48;fill-opacity:1;fill-rule:nonzero;stroke:none"
           id="path274" /><path
           d="m 578.4893,305.4834 c -0.507,-0.042 -2.135,-0.921 -2.431,-1.313 -1.565,-1.986 -4.656,-4.567 -6.895,-4.684 -0.24,-0.012 -1.186,0.042 -1.355,0.065 -3.758,0.516 -5.634,3.843 -5.334,8.82 0.388,6.503 4.226,19.077 11.819,18.569 2.908,-0.194 4.088,-2.806 4.836,-5.137 0.28,-0.554 1.139,-2.146 2.188,-3.033 0.645,-0.559 1.628,-0.736 1.988,-0.807 6.546,-1.253 14.388,3.947 17.47,7.597 3.355,3.977 0.446,11.187 -3.704,14.744 -13.365,11.453 -31.474,6.264 -37.246,3.992 0,0 -21.42,-7.086 -24.764,-35.167 -3.342,-28.082 21.801,-32.138 25.205,-32.74 3.406,-0.604 19.88,-0.721 32.123,9.608 0.662,0.558 3.695,3.374 3.372,7.067 -1.284,6.907 -9.615,13.077 -17.272,12.419"
           style="fill:#ffffff;fill-opacity:1;fill-rule:nonzero;stroke:none"
           id="path278" /><path
           d="m 650.8159,319.7334 c -0.606,-9.6 -7.983,-22.06 -16.19,-21.535 -3.284,0.205 -5.427,2.367 -5.307,6.164 0.066,3.738 2.207,10.885 2.207,10.885 2.349,9.104 7.979,14.068 13.285,13.734 4.415,-0.279 6.34,-3.952 6.005,-9.248 m 17.026,24.688 c -5.625,3.701 -21.169,6.371 -32.103,-4.835 0.005,0.024 5.233,20.09 5.233,20.09 0.593,2.49 3.142,9.009 -1.422,10.494 -3.762,1.311 -21.196,0.938 -25.097,-11.947 -0.172,-0.584 -12.66,-48.386 -13.009,-49.872 -8.219,-31.806 19.496,-31.806 25.054,-32.114 14.148,-0.659 22.311,3.329 28.205,6.555 25.497,14.646 29.091,52.621 13.139,61.629"
           style="fill:#5ccbf5;fill-opacity:1;fill-rule:nonzero;stroke:none"
           id="path282" /></g></g></g></svg>